{
	"asset":{
		"generator":"Khronos glTF Blender I/O v3.6.27",
		"version":"2.0"
	},
	"scene":0,
	"scenes":[
		{
			"name":"Scene",
			"nodes":[
				0,
				1,
				2,
				3,
				4,
				5
			]
		}
	],
	"nodes":[
		{
			"mesh":0,
			"name":"Mesa"
		},
		{
			"mesh":1,
			"name":"Piso",
			"scale":[
				3.4560770988464355,
				3.4560770988464355,
				3.4560770988464355
			]
		},
		{
			"mesh":2,
			"name":"Silla 1",
			"scale":[
				0.47228267788887024,
				0.6593725681304932,
				0.47228267788887024
			],
			"translation":[
				1.6107836961746216,
				0.6304271817207336,
				0
			]
		},
		{
			"mesh":3,
			"name":"Silla 2",
			"rotation":[
				1,
				0,
				0,
				0
			],
			"scale":[
				-0.47228267788887024,
				-0.6593725681304932,
				-0.47228267788887024
			],
			"translation":[
				-1.6178220510482788,
				0.6304271817207336,
				0
			]
		},
		{
			"mesh":4,
			"name":"Silla 3",
			"rotation":[
				0,
				0.7071068286895752,
				0,
				0.7071068286895752
			],
			"scale":[
				0.47228267788887024,
				0.6593725681304932,
				0.47228267788887024
			],
			"translation":[
				0,
				0.6304271221160889,
				-1.6107836961746216
			]
		},
		{
			"mesh":5,
			"name":"Silla 4",
			"rotation":[
				0,
				-0.7071068286895752,
				0,
				0.7071068286895752
			],
			"scale":[
				0.47228267788887024,
				0.6593725681304932,
				0.47228267788887024
			],
			"translation":[
				0,
				0.6304271221160889,
				1.6107836961746216
			]
		}
	],
	"materials":[
		{
			"doubleSided":true,
			"name":"Material",
			"pbrMetallicRoughness":{
				"baseColorFactor":[
					1,
					0,
					0,
					1
				],
				"metallicFactor":0,
				"roughnessFactor":0.5
			}
		},
		{
			"doubleSided":true,
			"name":"Material.001",
			"pbrMetallicRoughness":{
				"baseColorFactor":[
					1,
					0,
					0,
					1
				],
				"metallicFactor":0,
				"roughnessFactor":0.5
			}
		},
		{
			"doubleSided":true,
			"name":"Material.002",
			"pbrMetallicRoughness":{
				"baseColorFactor":[
					1,
					0,
					0.0014623963506892323,
					1
				],
				"metallicFactor":0,
				"roughnessFactor":0.5
			}
		}
	],
	"meshes":[
		{
			"name":"Cube",
			"primitives":[
				{
					"attributes":{
						"POSITION":0,
						"NORMAL":1,
						"TEXCOORD_0":2
					},
					"indices":3,
					"material":0
				}
			]
		},
		{
			"name":"Plane",
			"primitives":[
				{
					"attributes":{
						"POSITION":4,
						"NORMAL":5,
						"TEXCOORD_0":6
					},
					"indices":7
				}
			]
		},
		{
			"name":"Cube.001",
			"primitives":[
				{
					"attributes":{
						"POSITION":8,
						"NORMAL":9,
						"TEXCOORD_0":10
					},
					"indices":11,
					"material":0
				}
			]
		},
		{
			"name":"Cube.002",
			"primitives":[
				{
					"attributes":{
						"POSITION":12,
						"NORMAL":13,
						"TEXCOORD_0":14
					},
					"indices":11,
					"material":0
				}
			]
		},
		{
			"name":"Cube.004",
			"primitives":[
				{
					"attributes":{
						"POSITION":15,
						"NORMAL":16,
						"TEXCOORD_0":17
					},
					"indices":11,
					"material":1
				}
			]
		},
		{
			"name":"Cube.005",
			"primitives":[
				{
					"attributes":{
						"POSITION":18,
						"NORMAL":19,
						"TEXCOORD_0":20
					},
					"indices":11,
					"material":2
				}
			]
		}
	],
	"accessors":[
		{
			"bufferView":0,
			"componentType":5126,
			"count":124,
			"max":[
				1.0034339427947998,
				0.9391062259674072,
				1.13567054271698
			],
			"min":[
				-0.9965659379959106,
				0.0008649826049804688,
				-1.1490966081619263
			],
			"type":"VEC3"
		},
		{
			"bufferView":1,
			"componentType":5126,
			"count":124,
			"type":"VEC3"
		},
		{
			"bufferView":2,
			"componentType":5126,
			"count":124,
			"type":"VEC2"
		},
		{
			"bufferView":3,
			"componentType":5123,
			"count":276,
			"type":"SCALAR"
		},
		{
			"bufferView":4,
			"componentType":5126,
			"count":4,
			"max":[
				1,
				0,
				1
			],
			"min":[
				-1,
				0,
				-1
			],
			"type":"VEC3"
		},
		{
			"bufferView":5,
			"componentType":5126,
			"count":4,
			"type":"VEC3"
		},
		{
			"bufferView":6,
			"componentType":5126,
			"count":4,
			"type":"VEC2"
		},
		{
			"bufferView":7,
			"componentType":5123,
			"count":6,
			"type":"SCALAR"
		},
		{
			"bufferView":8,
			"componentType":5126,
			"count":286,
			"max":[
				0.8453029990196228,
				1.0662436485290527,
				0.8480703830718994
			],
			"min":[
				-1,
				-0.8938266038894653,
				-0.7743450403213501
			],
			"type":"VEC3"
		},
		{
			"bufferView":9,
			"componentType":5126,
			"count":286,
			"type":"VEC3"
		},
		{
			"bufferView":10,
			"componentType":5126,
			"count":286,
			"type":"VEC2"
		},
		{
			"bufferView":11,
			"componentType":5123,
			"count":660,
			"type":"SCALAR"
		},
		{
			"bufferView":12,
			"componentType":5126,
			"count":286,
			"max":[
				0.8453029990196228,
				1.0662436485290527,
				0.8480703830718994
			],
			"min":[
				-1,
				-0.8938266038894653,
				-0.7743450403213501
			],
			"type":"VEC3"
		},
		{
			"bufferView":13,
			"componentType":5126,
			"count":286,
			"type":"VEC3"
		},
		{
			"bufferView":14,
			"componentType":5126,
			"count":286,
			"type":"VEC2"
		},
		{
			"bufferView":15,
			"componentType":5126,
			"count":286,
			"max":[
				0.8453029990196228,
				1.0662436485290527,
				0.8480703830718994
			],
			"min":[
				-1,
				-0.8938266038894653,
				-0.7743450403213501
			],
			"type":"VEC3"
		},
		{
			"bufferView":16,
			"componentType":5126,
			"count":286,
			"type":"VEC3"
		},
		{
			"bufferView":17,
			"componentType":5126,
			"count":286,
			"type":"VEC2"
		},
		{
			"bufferView":18,
			"componentType":5126,
			"count":286,
			"max":[
				0.8453029990196228,
				1.0662436485290527,
				0.8480703830718994
			],
			"min":[
				-1,
				-0.8938266038894653,
				-0.7743450403213501
			],
			"type":"VEC3"
		},
		{
			"bufferView":19,
			"componentType":5126,
			"count":286,
			"type":"VEC3"
		},
		{
			"bufferView":20,
			"componentType":5126,
			"count":286,
			"type":"VEC2"
		}
	],
	"bufferViews":[
		{
			"buffer":0,
			"byteLength":1488,
			"byteOffset":0,
			"target":34962
		},
		{
			"buffer":0,
			"byteLength":1488,
			"byteOffset":1488,
			"target":34962
		},
		{
			"buffer":0,
			"byteLength":992,
			"byteOffset":2976,
			"target":34962
		},
		{
			"buffer":0,
			"byteLength":552,
			"byteOffset":3968,
			"target":34963
		},
		{
			"buffer":0,
			"byteLength":48,
			"byteOffset":4520,
			"target":34962
		},
		{
			"buffer":0,
			"byteLength":48,
			"byteOffset":4568,
			"target":34962
		},
		{
			"buffer":0,
			"byteLength":32,
			"byteOffset":4616,
			"target":34962
		},
		{
			"buffer":0,
			"byteLength":12,
			"byteOffset":4648,
			"target":34963
		},
		{
			"buffer":0,
			"byteLength":3432,
			"byteOffset":4660,
			"target":34962
		},
		{
			"buffer":0,
			"byteLength":3432,
			"byteOffset":8092,
			"target":34962
		},
		{
			"buffer":0,
			"byteLength":2288,
			"byteOffset":11524,
			"target":34962
		},
		{
			"buffer":0,
			"byteLength":1320,
			"byteOffset":13812,
			"target":34963
		},
		{
			"buffer":0,
			"byteLength":3432,
			"byteOffset":15132,
			"target":34962
		},
		{
			"buffer":0,
			"byteLength":3432,
			"byteOffset":18564,
			"target":34962
		},
		{
			"buffer":0,
			"byteLength":2288,
			"byteOffset":21996,
			"target":34962
		},
		{
			"buffer":0,
			"byteLength":3432,
			"byteOffset":24284,
			"target":34962
		},
		{
			"buffer":0,
			"byteLength":3432,
			"byteOffset":27716,
			"target":34962
		},
		{
			"buffer":0,
			"byteLength":2288,
			"byteOffset":31148,
			"target":34962
		},
		{
			"buffer":0,
			"byteLength":3432,
			"byteOffset":33436,
			"target":34962
		},
		{
			"buffer":0,
			"byteLength":3432,
			"byteOffset":36868,
			"target":34962
		},
		{
			"buffer":0,
			"byteLength":2288,
			"byteOffset":40300,
			"target":34962
		}
	],
	"buffers":[
		{
			"byteLength":42588,
			"uri":"data:application/octet-stream;base64,"
		}
	]
}
