{
	"asset":{
		"generator":"Khronos glTF Blender I/O v3.6.27",
		"version":"2.0"
	},
	"scene":0,
	"scenes":[
		{
			"name":"Scene",
			"nodes":[
				0,
				1
			]
		}
	],
	"nodes":[
		{
			"mesh":0,
			"name":"Cube",
			"scale":[
				2.0374562740325928,
				0.034991323947906494,
				2.0374562740325928
			]
		},
		{
			"mesh":1,
			"name":"Cube.001",
			"scale":[
				2.0374562740325928,
				0.034991323947906494,
				2.0374562740325928
			]
		}
	],
	"materials":[
		{
			"doubleSided":true,
			"name":"Ceramica.2",
			"pbrMetallicRoughness":{
				"baseColorTexture":{
					"index":0
				},
				"metallicFactor":0,
				"roughnessFactor":0.5
			}
		}
	],
	"meshes":[
		{
			"name":"Cube.001",
			"primitives":[
				{
					"attributes":{
						"POSITION":0,
						"NORMAL":1,
						"TEXCOORD_0":2
					},
					"indices":3
				}
			]
		},
		{
			"name":"Cube.002",
			"primitives":[
				{
					"attributes":{
						"POSITION":4,
						"NORMAL":5,
						"TEXCOORD_0":6
					},
					"indices":7,
					"material":0
				}
			]
		}
	],
	"textures":[
		{
			"sampler":0,
			"source":0
		}
	],
	"images":[
		{
			"bufferView":8,
			"mimeType":"image/jpeg",
			"name":"floor"
		}
	],
	"accessors":[
		{
			"bufferView":0,
			"componentType":5126,
			"count":561,
			"max":[
				1,
				1,
				1
			],
			"min":[
				-1,
				-1,
				-1
			],
			"type":"VEC3"
		},
		{
			"bufferView":1,
			"componentType":5126,
			"count":561,
			"type":"VEC3"
		},
		{
			"bufferView":2,
			"componentType":5126,
			"count":561,
			"type":"VEC2"
		},
		{
			"bufferView":3,
			"componentType":5123,
			"count":1224,
			"type":"SCALAR"
		},
		{
			"bufferView":4,
			"componentType":5126,
			"count":144,
			"max":[
				0.9905552268028259,
				0.9100000262260437,
				0.9905552268028259
			],
			"min":[
				-0.9905552268028259,
				0.9099999666213989,
				-0.9905552268028259
			],
			"type":"VEC3"
		},
		{
			"bufferView":5,
			"componentType":5126,
			"count":144,
			"type":"VEC3"
		},
		{
			"bufferView":6,
			"componentType":5126,
			"count":144,
			"type":"VEC2"
		},
		{
			"bufferView":7,
			"componentType":5123,
			"count":216,
			"type":"SCALAR"
		}
	],
	"bufferViews":[
		{
			"buffer":0,
			"byteLength":6732,
			"byteOffset":0,
			"target":34962
		},
		{
			"buffer":0,
			"byteLength":6732,
			"byteOffset":6732,
			"target":34962
		},
		{
			"buffer":0,
			"byteLength":4488,
			"byteOffset":13464,
			"target":34962
		},
		{
			"buffer":0,
			"byteLength":2448,
			"byteOffset":17952,
			"target":34963
		},
		{
			"buffer":0,
			"byteLength":1728,
			"byteOffset":20400,
			"target":34962
		},
		{
			"buffer":0,
			"byteLength":1728,
			"byteOffset":22128,
			"target":34962
		},
		{
			"buffer":0,
			"byteLength":1152,
			"byteOffset":23856,
			"target":34962
		},
		{
			"buffer":0,
			"byteLength":432,
			"byteOffset":25008,
			"target":34963
		},
		{
			"buffer":0,
			"byteLength":128928,
			"byteOffset":25440
		}
	],
	"samplers":[
		{
			"magFilter":9729,
			"minFilter":9987
		}
	],
	"buffers":[
		{
			"byteLength":154368,
			"uri":"data:application/octet-stream;base64,"
		}
	]
}
